G04 ================== begin FILE IDENTIFICATION RECORD ==================*
G04 Layout Name:  DevPack_Debug.brd*
G04 Film Name:    silk_bottom_DevPack_Debug*
G04 File Format:  Gerber RS274X*
G04 File Origin:  Cadence Allegro 16.6-S026*
G04 Origin Date:  Tue Jan 27 16:49:22 2015*
G04 *
G04 Layer:  REF DES/SILKSCREEN_BOTTOM*
G04 Layer:  PACKAGE GEOMETRY/SILKSCREEN_BOTTOM*
G04 Layer:  MANUFACTURING/AUTOSILK_BOTTOM*
G04 Layer:  BOARD GEOMETRY/OUTLINE*
G04 *
G04 Offset:    (0.0000 0.0000)*
G04 Mirror:    No*
G04 Mode:      Positive*
G04 Rotation:  0*
G04 FullContactRelief:  No*
G04 UndefLineWidth:     0.1000*
G04 ================== end FILE IDENTIFICATION RECORD ====================*
%FSLAX25Y25*MOMM*%
%IR0*IPPOS*OFA0.00000B0.00000*MIA0B0*SFA1.00000B1.00000*%
%ADD10C,.1*%
%ADD11C,.1001*%
G75*
%LPD*%
G75*
G54D10*
G01X133000Y689000D02*
G03X-22000Y534000I-4769J-150231D01*
G03X133000Y689000I155000J0D01*
G01X686000Y886000D02*
X666000D01*
G01X4000Y379000D02*
Y79000D01*
X49000Y34000D01*
X709000D01*
Y379000D01*
X4000D01*
G01X542000Y848000D02*
Y608000D01*
X222000D01*
X97000Y733000D01*
Y848000D01*
G01X686000Y986000D02*
X666000D01*
G01X631000Y2341000D02*
Y2361000D01*
G01X731000Y2341000D02*
Y2361000D01*
G01X97000Y1513000D02*
Y1628000D01*
X222000Y1753000D01*
X542000D01*
Y1513000D01*
G01X149000Y3238000D02*
G03X-6000Y3083000I-4769J-150231D01*
G03X149000Y3238000I155000J0D01*
G01X1487000Y652000D02*
Y592000D01*
X1547000D01*
G01X2599000Y376000D02*
X2619000D01*
G01X2599000Y276000D02*
X2619000D01*
G01X2446010Y354000D02*
X2425990D01*
G01X2446010Y454000D02*
X2425990D01*
G01X2446010Y276000D02*
X2425990D01*
G01X2446010Y376000D02*
X2425990D01*
G01X2600000Y455000D02*
X2620000D01*
G01X2600000Y355000D02*
X2620000D01*
G01X1778000Y443000D02*
X1798000D01*
G01X1778000Y343000D02*
X1798000D01*
G01X2512990Y294000D02*
X2533010D01*
G01X2512990Y194000D02*
X2533010D01*
G01X1547000Y2021990D02*
X1487000Y2022000D01*
Y1962000D01*
G01X1219000Y1373000D02*
Y1353000D01*
G01X1119000Y1373000D02*
Y1353000D01*
G01X1777000Y2282000D02*
X1797000D01*
G01X1777000Y2182000D02*
X1797000D01*
G01X1308000Y1373000D02*
Y1353000D01*
G01X1208000Y1373000D02*
Y1353000D01*
G01X1107000Y2371000D02*
Y2391000D01*
G01X1207000Y2371000D02*
Y2391000D01*
G01X1798000Y2738000D02*
Y2718000D01*
G01X1726000Y2738000D02*
Y2718000D01*
G01X1660210Y2466710D02*
X1685210D01*
Y2796710D01*
X1660210D01*
G01X1375210Y2466710D02*
X1350210D01*
Y2771710D01*
X1370210Y2796710D01*
X1375210D01*
G01X1748580Y2575290D02*
X1728580D01*
G01X1748580Y2645290D02*
X1733580D01*
G01X1677290Y2720130D02*
Y2740130D01*
G01X1747290Y2720130D02*
Y2735130D01*
G01X1866000Y2736000D02*
Y2716000D01*
G01X1776000Y2736000D02*
Y2716000D01*
G01X1280000Y2820000D02*
Y2840000D01*
G01X1370000Y2820000D02*
Y2840000D01*
G01X3811000Y309000D02*
G03X3656000Y154000I-4769J-150231D01*
G03X3811000Y309000I155000J0D01*
G01X2857000Y592000D02*
X2862000Y592010D01*
X2917000Y647000D01*
Y652000D01*
G01X3079000Y588000D02*
X3099000D01*
G01X3079000Y488000D02*
X3099000D01*
G01X2896000Y482000D02*
Y502000D01*
G01X2996000Y482000D02*
Y502000D01*
G01X2857000Y2021990D02*
X2917000Y2022000D01*
Y1962000D01*
G01X3514000Y2152000D02*
Y2132000D01*
G01X3314000Y2282000D02*
X3364000Y2281990D01*
G01X3164000Y2152000D02*
Y2132000D01*
G01X3314000Y2002000D02*
X3354000Y2001990D01*
X3364010Y2012000D01*
G01X3175000Y1157000D02*
Y1137000D01*
G01X3075000Y1157000D02*
Y1137000D01*
G01X3268000Y1157000D02*
Y1137000D01*
G01X3168000Y1157000D02*
Y1137000D01*
G01X3176000Y1646000D02*
Y1626000D01*
G01X3076000Y1646000D02*
Y1626000D01*
G01X3143000Y2194010D02*
Y2173990D01*
G01X3043000Y2194010D02*
Y2173990D01*
G01X3361000Y1157000D02*
Y1137000D01*
G01X3261000Y1157000D02*
Y1137000D01*
G01X3483990Y1985000D02*
X3504010D01*
G01X3483990Y1885000D02*
X3504010D01*
G01X3075000Y1322000D02*
Y1342000D01*
G01X3175000Y1322000D02*
Y1342000D01*
G01X0Y3270000D02*
Y0D01*
X4000000D01*
Y2900000D01*
X1700000D01*
Y3270000D01*
X0D01*
G54D11*
G01X3907250Y854650D02*
Y841120D01*
X3926300D01*
X3932650Y845170D01*
X3936880Y849910D01*
X3939000Y856680D01*
X3936880Y863440D01*
X3932650Y868180D01*
X3926300Y872240D01*
X3918890Y874940D01*
X3910430Y876290D01*
X3903020D01*
X3896670Y874940D01*
X3889260Y872240D01*
X3882910Y868180D01*
X3878680Y864120D01*
X3875500Y858710D01*
Y853970D01*
X3877620Y848560D01*
X3881850Y844500D01*
G01X3939000Y818480D02*
X3875500D01*
X3939000Y787370D01*
X3875500D01*
G01X3939000Y762030D02*
X3875500D01*
Y748500D01*
X3878680Y743090D01*
X3882910Y739030D01*
X3889260Y735640D01*
X3896670Y732940D01*
X3907250Y732260D01*
X3917830Y732940D01*
X3925240Y735640D01*
X3931590Y739030D01*
X3935830Y743090D01*
X3939000Y748500D01*
Y762030D01*
M02*
